<svg width="49" height="25" viewBox="0 0 49 25" fill="none" xmlns="http://www.w3.org/2000/svg">
<rect width="49" height="25" rx="8" fill="#FAFF00"/>
<path d="M9.94815 18V7.09091H14.3161C15.1186 7.09091 15.788 7.20987 16.3242 7.4478C16.8604 7.68572 17.2635 8.01598 17.5334 8.43857C17.8033 8.8576 17.9382 9.34055 17.9382 9.88743C17.9382 10.3136 17.853 10.6882 17.6825 11.0114C17.5121 11.331 17.2777 11.5937 16.9794 11.7997C16.6847 12.0021 16.3473 12.146 15.9673 12.2312V12.3377C16.3828 12.3555 16.7717 12.4727 17.1339 12.6893C17.4996 12.9059 17.7962 13.2095 18.0234 13.6001C18.2507 13.9872 18.3643 14.4489 18.3643 14.9851C18.3643 15.5639 18.2205 16.0806 17.9329 16.5352C17.6488 16.9862 17.228 17.343 16.6705 17.6058C16.1129 17.8686 15.4258 18 14.609 18H9.94815ZM12.2546 16.1143H14.1349C14.7777 16.1143 15.2464 15.9918 15.5412 15.7468C15.8359 15.4982 15.9833 15.168 15.9833 14.756C15.9833 14.4542 15.9105 14.1879 15.7649 13.957C15.6193 13.7262 15.4116 13.5451 15.1417 13.4137C14.8754 13.2823 14.5575 13.2166 14.1882 13.2166H12.2546V16.1143ZM12.2546 11.6559H13.9645C14.2805 11.6559 14.5611 11.6009 14.8061 11.4908C15.0547 11.3771 15.25 11.2173 15.392 11.0114C15.5376 10.8054 15.6104 10.5586 15.6104 10.271C15.6104 9.87678 15.4702 9.55895 15.1896 9.31747C14.9126 9.07599 14.5185 8.95526 14.0071 8.95526H12.2546V11.6559ZM19.4497 8.99254V7.09091H28.4092V8.99254H25.0693V18H22.7895V8.99254H19.4497ZM39.012 10.9102H36.6789C36.6363 10.6083 36.5493 10.3402 36.4179 10.1058C36.2865 9.8679 36.1178 9.66548 35.9118 9.49858C35.7059 9.33168 35.468 9.20383 35.1981 9.11506C34.9317 9.02628 34.6423 8.98189 34.3298 8.98189C33.7652 8.98189 33.2733 9.12216 32.8543 9.4027C32.4353 9.67969 32.1104 10.0845 31.8795 10.6172C31.6487 11.1463 31.5333 11.7891 31.5333 12.5455C31.5333 13.3232 31.6487 13.9766 31.8795 14.5057C32.1139 15.0348 32.4406 15.4343 32.8596 15.7042C33.2787 15.9741 33.7634 16.109 34.3138 16.109C34.6228 16.109 34.9086 16.0682 35.1714 15.9865C35.4378 15.9048 35.6739 15.7859 35.8799 15.6296C36.0858 15.4698 36.2563 15.2763 36.3912 15.049C36.5297 14.8217 36.6256 14.5625 36.6789 14.2713L39.012 14.282C38.9516 14.7827 38.8007 15.2656 38.5592 15.7308C38.3213 16.1925 37.9999 16.6062 37.5951 16.9719C37.1938 17.3342 36.7144 17.6218 36.1569 17.8349C35.6029 18.0444 34.9761 18.1491 34.2765 18.1491C33.3035 18.1491 32.4335 17.929 31.6665 17.4886C30.903 17.0483 30.2993 16.4109 29.8554 15.5763C29.415 14.7418 29.1949 13.7315 29.1949 12.5455C29.1949 11.3558 29.4186 10.3438 29.866 9.50923C30.3135 8.67472 30.9207 8.03906 31.6878 7.60227C32.4548 7.16193 33.3177 6.94176 34.2765 6.94176C34.9086 6.94176 35.4946 7.03054 36.0344 7.2081C36.5777 7.38565 37.0589 7.64489 37.4779 7.98579C37.8969 8.32315 38.2378 8.73686 38.5006 9.22692C38.767 9.71697 38.9374 10.2781 39.012 10.9102Z" fill="black"/>
</svg>
